<mxfile host="app.diagrams.net" modified="2023-10-02T18:49:40.145Z" agent="Mozilla/5.0 (X11; Linux x86_64; rv:109.0) Gecko/20100101 Firefox/118.0" etag="XgR4i4BuZHIcrHYuMr4n" version="22.0.1" type="device">
  <diagram name="Page-1" id="b5b7bab2-c9e2-2cf4-8b2a-24fd1a2a6d21">
    <mxGraphModel dx="1957" dy="769" grid="0" gridSize="10" guides="1" tooltips="1" connect="1" arrows="1" fold="1" page="1" pageScale="1" pageWidth="827" pageHeight="1169" background="none" math="0" shadow="0">
      <root>
        <mxCell id="0" />
        <mxCell id="1" parent="0" />
        <mxCell id="XQAku4CaUNr8fQENShWn-1" value="Generator" style="shape=folder;fontStyle=1;spacingTop=10;tabWidth=50;tabHeight=17;tabPosition=left;html=1;rounded=0;shadow=0;comic=0;labelBackgroundColor=none;strokeColor=#000000;strokeWidth=1;fillColor=#ffffff;fontFamily=Verdana;fontSize=10;fontColor=#000000;align=center;" vertex="1" parent="1">
          <mxGeometry x="386" y="660" width="112" height="70" as="geometry" />
        </mxCell>
        <mxCell id="XQAku4CaUNr8fQENShWn-3" value="Player" style="shape=umlActor;verticalLabelPosition=bottom;verticalAlign=top;html=1;outlineConnect=0;" vertex="1" parent="1">
          <mxGeometry x="-185" y="679.5" width="30" height="53.5" as="geometry" />
        </mxCell>
        <mxCell id="XQAku4CaUNr8fQENShWn-13" style="edgeStyle=orthogonalEdgeStyle;rounded=0;orthogonalLoop=1;jettySize=auto;html=1;endArrow=classic;endFill=1;dashed=1;startArrow=classic;startFill=1;" edge="1" parent="1">
          <mxGeometry relative="1" as="geometry">
            <mxPoint x="76" y="833.5" as="sourcePoint" />
            <mxPoint x="171" y="833.5" as="targetPoint" />
          </mxGeometry>
        </mxCell>
        <mxCell id="XQAku4CaUNr8fQENShWn-20" style="edgeStyle=orthogonalEdgeStyle;rounded=0;orthogonalLoop=1;jettySize=auto;html=1;endArrow=classic;endFill=1;exitX=0.776;exitY=0.998;exitDx=0;exitDy=0;exitPerimeter=0;entryX=0.772;entryY=0.219;entryDx=0;entryDy=0;entryPerimeter=0;dashed=1;" edge="1" parent="1" source="XQAku4CaUNr8fQENShWn-4" target="XQAku4CaUNr8fQENShWn-19">
          <mxGeometry relative="1" as="geometry" />
        </mxCell>
        <mxCell id="XQAku4CaUNr8fQENShWn-4" value="GameManager" style="shape=folder;fontStyle=1;spacingTop=10;tabWidth=50;tabHeight=17;tabPosition=left;html=1;rounded=0;shadow=0;comic=0;labelBackgroundColor=none;strokeColor=#000000;strokeWidth=1;fillColor=#ffffff;fontFamily=Verdana;fontSize=10;fontColor=#000000;align=center;" vertex="1" parent="1">
          <mxGeometry x="-36" y="796.5" width="112" height="70" as="geometry" />
        </mxCell>
        <mxCell id="XQAku4CaUNr8fQENShWn-12" style="edgeStyle=orthogonalEdgeStyle;rounded=0;orthogonalLoop=1;jettySize=auto;html=1;startArrow=classic;startFill=1;endArrow=classic;endFill=1;entryX=0.64;entryY=0.198;entryDx=0;entryDy=0;entryPerimeter=0;dashed=1;" edge="1" parent="1" source="XQAku4CaUNr8fQENShWn-5" target="XQAku4CaUNr8fQENShWn-4">
          <mxGeometry relative="1" as="geometry" />
        </mxCell>
        <mxCell id="XQAku4CaUNr8fQENShWn-5" value="GUI" style="shape=folder;fontStyle=1;spacingTop=10;tabWidth=50;tabHeight=17;tabPosition=left;html=1;rounded=0;shadow=0;comic=0;labelBackgroundColor=none;strokeColor=#000000;strokeWidth=1;fillColor=#ffffff;fontFamily=Verdana;fontSize=10;fontColor=#000000;align=center;" vertex="1" parent="1">
          <mxGeometry x="-21" y="663" width="112" height="70" as="geometry" />
        </mxCell>
        <mxCell id="XQAku4CaUNr8fQENShWn-6" style="edgeStyle=orthogonalEdgeStyle;rounded=0;orthogonalLoop=1;jettySize=auto;html=1;entryX=0;entryY=0;entryDx=0;entryDy=43.5;entryPerimeter=0;endArrow=classic;endFill=1;startArrow=classic;startFill=1;dashed=1;" edge="1" parent="1" source="XQAku4CaUNr8fQENShWn-3" target="XQAku4CaUNr8fQENShWn-5">
          <mxGeometry relative="1" as="geometry" />
        </mxCell>
        <mxCell id="XQAku4CaUNr8fQENShWn-14" style="edgeStyle=orthogonalEdgeStyle;rounded=0;orthogonalLoop=1;jettySize=auto;html=1;startArrow=none;startFill=0;endArrow=classic;endFill=1;entryX=0;entryY=0;entryDx=81;entryDy=17;entryPerimeter=0;dashed=1;" edge="1" parent="1" target="XQAku4CaUNr8fQENShWn-9">
          <mxGeometry relative="1" as="geometry">
            <mxPoint x="253" y="863.5" as="sourcePoint" />
          </mxGeometry>
        </mxCell>
        <mxCell id="XQAku4CaUNr8fQENShWn-16" style="edgeStyle=orthogonalEdgeStyle;rounded=0;orthogonalLoop=1;jettySize=auto;html=1;endArrow=classic;endFill=1;dashed=1;" edge="1" parent="1" target="XQAku4CaUNr8fQENShWn-10">
          <mxGeometry relative="1" as="geometry">
            <mxPoint x="210" y="831.5" as="sourcePoint" />
          </mxGeometry>
        </mxCell>
        <mxCell id="XQAku4CaUNr8fQENShWn-8" value="Engine" style="shape=folder;fontStyle=1;spacingTop=10;tabWidth=50;tabHeight=17;tabPosition=left;html=1;rounded=0;shadow=0;comic=0;labelBackgroundColor=none;strokeColor=#000000;strokeWidth=1;fillColor=#ffffff;fontFamily=Verdana;fontSize=10;fontColor=#000000;align=center;" vertex="1" parent="1">
          <mxGeometry x="171" y="796.5" width="112" height="70" as="geometry" />
        </mxCell>
        <mxCell id="XQAku4CaUNr8fQENShWn-9" value="&lt;div&gt;Physics&lt;/div&gt;" style="shape=folder;fontStyle=1;spacingTop=10;tabWidth=50;tabHeight=17;tabPosition=left;html=1;rounded=0;shadow=0;comic=0;labelBackgroundColor=none;strokeColor=#000000;strokeWidth=1;fillColor=#ffffff;fontFamily=Verdana;fontSize=10;fontColor=#000000;align=center;" vertex="1" parent="1">
          <mxGeometry x="173" y="935" width="112" height="70" as="geometry" />
        </mxCell>
        <mxCell id="XQAku4CaUNr8fQENShWn-10" value="InventorySystem" style="shape=folder;fontStyle=1;spacingTop=10;tabWidth=50;tabHeight=17;tabPosition=left;html=1;rounded=0;shadow=0;comic=0;labelBackgroundColor=none;strokeColor=#000000;strokeWidth=1;fillColor=#ffffff;fontFamily=Verdana;fontSize=10;fontColor=#000000;align=center;" vertex="1" parent="1">
          <mxGeometry x="386" y="796.5" width="112" height="70" as="geometry" />
        </mxCell>
        <mxCell id="XQAku4CaUNr8fQENShWn-17" style="edgeStyle=orthogonalEdgeStyle;rounded=0;orthogonalLoop=1;jettySize=auto;html=1;endArrow=none;endFill=0;entryX=0;entryY=0;entryDx=0;entryDy=43.5;entryPerimeter=0;dashed=1;startArrow=classic;startFill=1;" edge="1" parent="1" target="XQAku4CaUNr8fQENShWn-1">
          <mxGeometry relative="1" as="geometry">
            <mxPoint x="282.9999999999998" y="704" as="sourcePoint" />
          </mxGeometry>
        </mxCell>
        <mxCell id="XQAku4CaUNr8fQENShWn-19" value="SaveManager" style="shape=folder;fontStyle=1;spacingTop=10;tabWidth=50;tabHeight=17;tabPosition=left;html=1;rounded=0;shadow=0;comic=0;labelBackgroundColor=none;strokeColor=#000000;strokeWidth=1;fillColor=#ffffff;fontFamily=Verdana;fontSize=10;fontColor=#000000;align=center;" vertex="1" parent="1">
          <mxGeometry x="-36" y="935" width="112" height="70" as="geometry" />
        </mxCell>
        <mxCell id="XQAku4CaUNr8fQENShWn-21" value="&amp;lt;&amp;lt;Interacts&amp;gt;&amp;gt;" style="text;html=1;strokeColor=none;fillColor=none;align=center;verticalAlign=middle;whiteSpace=wrap;rounded=0;" vertex="1" parent="1">
          <mxGeometry x="-115" y="683" width="60" height="30" as="geometry" />
        </mxCell>
        <mxCell id="XQAku4CaUNr8fQENShWn-22" value="&amp;lt;&amp;lt;Interacts&amp;gt;&amp;gt;" style="text;html=1;align=center;verticalAlign=middle;whiteSpace=wrap;rounded=0;shadow=1;glass=0;perimeterSpacing=7;" vertex="1" parent="1">
          <mxGeometry x="5" y="754" width="60" height="30" as="geometry" />
        </mxCell>
        <mxCell id="XQAku4CaUNr8fQENShWn-24" value="&amp;lt;&amp;lt;loads&amp;gt;&amp;gt;" style="text;html=1;strokeColor=none;fillColor=none;align=center;verticalAlign=middle;whiteSpace=wrap;rounded=0;" vertex="1" parent="1">
          <mxGeometry x="24" y="892" width="60" height="30" as="geometry" />
        </mxCell>
        <mxCell id="XQAku4CaUNr8fQENShWn-25" value="&amp;lt;&amp;lt;simulates&amp;gt;&amp;gt;" style="text;html=1;strokeColor=none;fillColor=none;align=center;verticalAlign=middle;whiteSpace=wrap;rounded=0;" vertex="1" parent="1">
          <mxGeometry x="221" y="886" width="60" height="30" as="geometry" />
        </mxCell>
        <mxCell id="XQAku4CaUNr8fQENShWn-26" value="&amp;lt;&amp;lt;uses&amp;gt;&amp;gt;" style="text;html=1;strokeColor=none;fillColor=none;align=center;verticalAlign=middle;whiteSpace=wrap;rounded=0;" vertex="1" parent="1">
          <mxGeometry x="303" y="808.25" width="60" height="30" as="geometry" />
        </mxCell>
        <mxCell id="XQAku4CaUNr8fQENShWn-27" value="&amp;lt;&amp;lt;generates&amp;gt;&amp;gt;" style="text;html=1;strokeColor=none;fillColor=none;align=center;verticalAlign=middle;whiteSpace=wrap;rounded=0;" vertex="1" parent="1">
          <mxGeometry x="303" y="680" width="60" height="30" as="geometry" />
        </mxCell>
        <mxCell id="XQAku4CaUNr8fQENShWn-29" value="World" style="shape=folder;fontStyle=1;spacingTop=10;tabWidth=50;tabHeight=17;tabPosition=left;html=1;rounded=0;shadow=0;comic=0;labelBackgroundColor=none;strokeColor=#000000;strokeWidth=1;fillColor=#ffffff;fontFamily=Verdana;fontSize=10;fontColor=#000000;align=center;" vertex="1" parent="1">
          <mxGeometry x="171" y="660" width="112" height="70" as="geometry" />
        </mxCell>
        <mxCell id="XQAku4CaUNr8fQENShWn-30" style="edgeStyle=orthogonalEdgeStyle;rounded=0;orthogonalLoop=1;jettySize=auto;html=1;entryX=0.569;entryY=0.984;entryDx=0;entryDy=0;entryPerimeter=0;exitX=0.573;exitY=0.253;exitDx=0;exitDy=0;exitPerimeter=0;dashed=1;" edge="1" parent="1" source="XQAku4CaUNr8fQENShWn-8" target="XQAku4CaUNr8fQENShWn-29">
          <mxGeometry relative="1" as="geometry" />
        </mxCell>
        <mxCell id="XQAku4CaUNr8fQENShWn-31" value="&amp;lt;&amp;lt;manages&amp;gt;&amp;gt;" style="text;html=1;strokeColor=none;fillColor=none;align=center;verticalAlign=middle;whiteSpace=wrap;rounded=0;" vertex="1" parent="1">
          <mxGeometry x="204" y="756" width="60" height="30" as="geometry" />
        </mxCell>
        <mxCell id="XQAku4CaUNr8fQENShWn-34" value="&amp;lt;&amp;lt;Interacts&amp;gt;&amp;gt;" style="text;html=1;strokeColor=none;fillColor=none;align=center;verticalAlign=middle;whiteSpace=wrap;rounded=0;" vertex="1" parent="1">
          <mxGeometry x="94" y="808.25" width="60" height="30" as="geometry" />
        </mxCell>
        <mxCell id="XQAku4CaUNr8fQENShWn-37" value="Generator" style="shape=folder;fontStyle=1;spacingTop=10;tabWidth=50;tabHeight=17;tabPosition=left;html=1;rounded=0;shadow=0;comic=0;labelBackgroundColor=none;strokeColor=#000000;strokeWidth=1;fillColor=#ffffff;fontFamily=Verdana;fontSize=10;fontColor=#000000;align=center;" vertex="1" parent="1">
          <mxGeometry x="344" y="196" width="112" height="70" as="geometry" />
        </mxCell>
        <mxCell id="XQAku4CaUNr8fQENShWn-39" style="edgeStyle=orthogonalEdgeStyle;rounded=0;orthogonalLoop=1;jettySize=auto;html=1;endArrow=classic;endFill=1;dashed=1;startArrow=classic;startFill=1;" edge="1" parent="1">
          <mxGeometry relative="1" as="geometry">
            <mxPoint x="34" y="369.5" as="sourcePoint" />
            <mxPoint x="129" y="369.5" as="targetPoint" />
          </mxGeometry>
        </mxCell>
        <mxCell id="XQAku4CaUNr8fQENShWn-45" style="edgeStyle=orthogonalEdgeStyle;rounded=0;orthogonalLoop=1;jettySize=auto;html=1;startArrow=none;startFill=0;endArrow=classic;endFill=1;entryX=0;entryY=0;entryDx=81;entryDy=17;entryPerimeter=0;dashed=1;" edge="1" target="XQAku4CaUNr8fQENShWn-48" parent="1">
          <mxGeometry relative="1" as="geometry">
            <mxPoint x="211" y="399.5" as="sourcePoint" />
          </mxGeometry>
        </mxCell>
        <mxCell id="XQAku4CaUNr8fQENShWn-46" style="edgeStyle=orthogonalEdgeStyle;rounded=0;orthogonalLoop=1;jettySize=auto;html=1;endArrow=classic;endFill=1;dashed=1;" edge="1" target="XQAku4CaUNr8fQENShWn-49" parent="1">
          <mxGeometry relative="1" as="geometry">
            <mxPoint x="168" y="367.5" as="sourcePoint" />
          </mxGeometry>
        </mxCell>
        <mxCell id="XQAku4CaUNr8fQENShWn-47" value="Engine" style="shape=folder;fontStyle=1;spacingTop=10;tabWidth=50;tabHeight=17;tabPosition=left;html=1;rounded=0;shadow=0;comic=0;labelBackgroundColor=none;strokeColor=#000000;strokeWidth=1;fillColor=#ffffff;fontFamily=Verdana;fontSize=10;fontColor=#000000;align=center;" vertex="1" parent="1">
          <mxGeometry x="129" y="332.5" width="112" height="70" as="geometry" />
        </mxCell>
        <mxCell id="XQAku4CaUNr8fQENShWn-48" value="&lt;div&gt;Physics&lt;/div&gt;" style="shape=folder;fontStyle=1;spacingTop=10;tabWidth=50;tabHeight=17;tabPosition=left;html=1;rounded=0;shadow=0;comic=0;labelBackgroundColor=none;strokeColor=#000000;strokeWidth=1;fillColor=#ffffff;fontFamily=Verdana;fontSize=10;fontColor=#000000;align=center;" vertex="1" parent="1">
          <mxGeometry x="131" y="471" width="112" height="70" as="geometry" />
        </mxCell>
        <mxCell id="XQAku4CaUNr8fQENShWn-49" value="InventorySystem" style="shape=folder;fontStyle=1;spacingTop=10;tabWidth=50;tabHeight=17;tabPosition=left;html=1;rounded=0;shadow=0;comic=0;labelBackgroundColor=none;strokeColor=#000000;strokeWidth=1;fillColor=#ffffff;fontFamily=Verdana;fontSize=10;fontColor=#000000;align=center;" vertex="1" parent="1">
          <mxGeometry x="344" y="332.5" width="112" height="70" as="geometry" />
        </mxCell>
        <mxCell id="XQAku4CaUNr8fQENShWn-50" style="edgeStyle=orthogonalEdgeStyle;rounded=0;orthogonalLoop=1;jettySize=auto;html=1;endArrow=none;endFill=0;entryX=0;entryY=0;entryDx=0;entryDy=43.5;entryPerimeter=0;dashed=1;startArrow=classic;startFill=1;" edge="1" target="XQAku4CaUNr8fQENShWn-37" parent="1">
          <mxGeometry relative="1" as="geometry">
            <mxPoint x="240.99999999999977" y="240" as="sourcePoint" />
          </mxGeometry>
        </mxCell>
        <mxCell id="XQAku4CaUNr8fQENShWn-55" value="&amp;lt;&amp;lt;simulates&amp;gt;&amp;gt;" style="text;html=1;strokeColor=none;fillColor=none;align=center;verticalAlign=middle;whiteSpace=wrap;rounded=0;" vertex="1" parent="1">
          <mxGeometry x="179" y="422" width="60" height="30" as="geometry" />
        </mxCell>
        <mxCell id="XQAku4CaUNr8fQENShWn-56" value="&amp;lt;&amp;lt;uses&amp;gt;&amp;gt;" style="text;html=1;strokeColor=none;fillColor=none;align=center;verticalAlign=middle;whiteSpace=wrap;rounded=0;" vertex="1" parent="1">
          <mxGeometry x="261" y="344.25" width="60" height="30" as="geometry" />
        </mxCell>
        <mxCell id="XQAku4CaUNr8fQENShWn-57" value="&amp;lt;&amp;lt;generates&amp;gt;&amp;gt;" style="text;html=1;strokeColor=none;fillColor=none;align=center;verticalAlign=middle;whiteSpace=wrap;rounded=0;" vertex="1" parent="1">
          <mxGeometry x="261" y="216" width="60" height="30" as="geometry" />
        </mxCell>
        <mxCell id="XQAku4CaUNr8fQENShWn-58" value="World" style="shape=folder;fontStyle=1;spacingTop=10;tabWidth=50;tabHeight=17;tabPosition=left;html=1;rounded=0;shadow=0;comic=0;labelBackgroundColor=none;strokeColor=#000000;strokeWidth=1;fillColor=#ffffff;fontFamily=Verdana;fontSize=10;fontColor=#000000;align=center;" vertex="1" parent="1">
          <mxGeometry x="129" y="196" width="112" height="70" as="geometry" />
        </mxCell>
        <mxCell id="XQAku4CaUNr8fQENShWn-59" style="edgeStyle=orthogonalEdgeStyle;rounded=0;orthogonalLoop=1;jettySize=auto;html=1;entryX=0.569;entryY=0.984;entryDx=0;entryDy=0;entryPerimeter=0;exitX=0.573;exitY=0.253;exitDx=0;exitDy=0;exitPerimeter=0;dashed=1;" edge="1" source="XQAku4CaUNr8fQENShWn-47" target="XQAku4CaUNr8fQENShWn-58" parent="1">
          <mxGeometry relative="1" as="geometry" />
        </mxCell>
        <mxCell id="XQAku4CaUNr8fQENShWn-60" value="&amp;lt;&amp;lt;manages&amp;gt;&amp;gt;" style="text;html=1;strokeColor=none;fillColor=none;align=center;verticalAlign=middle;whiteSpace=wrap;rounded=0;" vertex="1" parent="1">
          <mxGeometry x="166" y="291" width="60" height="30" as="geometry" />
        </mxCell>
        <mxCell id="XQAku4CaUNr8fQENShWn-62" value="" style="rounded=0;whiteSpace=wrap;html=1;" vertex="1" parent="1">
          <mxGeometry x="-583" y="186" width="579" height="387" as="geometry" />
        </mxCell>
      </root>
    </mxGraphModel>
  </diagram>
</mxfile>
